<svg width="46" height="46" viewBox="0 0 46 46" fill="none" xmlns="http://www.w3.org/2000/svg">
<g id="Icons/battery-charging">
<path id="Vector" d="M28.75 13.4167H30.6667C31.6833 13.4167 32.6584 13.8206 33.3772 14.5395C34.0961 15.2584 34.5 16.2334 34.5 17.2501V28.7501C34.5 29.7667 34.0961 30.7418 33.3772 31.4607C32.6584 32.1795 31.6833 32.5834 30.6667 32.5834H26.8333" stroke="#DE2A2C" stroke-width="2" stroke-linecap="round" stroke-linejoin="round"/>
<path id="Vector_2" d="M11.5 13.4167H7.66666C6.65 13.4167 5.67497 13.8206 4.95608 14.5395C4.2372 15.2584 3.83333 16.2334 3.83333 17.2501V28.7501C3.83333 29.7667 4.2372 30.7418 4.95608 31.4607C5.67497 32.1795 6.65 32.5834 7.66666 32.5834H9.58333" stroke="#DE2A2C" stroke-width="2" stroke-linecap="round" stroke-linejoin="round"/>
<path id="Vector_3" d="M21.0833 13.4167L15.3333 23.0001H23L17.25 32.5834" stroke="#DE2A2C" stroke-width="2" stroke-linecap="round" stroke-linejoin="round"/>
<path id="Vector_4" d="M42.1667 21.0835V24.9168" stroke="#DE2A2C" stroke-width="2" stroke-linecap="round" stroke-linejoin="round"/>
</g>
</svg>
