<svg width="46" height="46" viewBox="0 0 46 46" fill="none" xmlns="http://www.w3.org/2000/svg">
<path d="M38.3334 40.25V24.9167C38.3334 23.9 37.9295 22.925 37.2106 22.2061C36.4917 21.4872 35.5167 21.0833 34.5 21.0833H11.5C10.4834 21.0833 9.50833 21.4872 8.78944 22.2061C8.07055 22.925 7.66669 23.9 7.66669 24.9167V40.25" stroke="#DE2A2C" stroke-width="2" stroke-linecap="round" stroke-linejoin="round"/>
<path d="M7.66669 30.6667C7.66669 30.6667 8.62502 28.75 11.5 28.75C14.375 28.75 16.2917 32.5833 19.1667 32.5833C22.0417 32.5833 23.9584 28.75 26.8334 28.75C29.7084 28.75 31.625 32.5833 34.5 32.5833C37.375 32.5833 38.3334 30.6667 38.3334 30.6667" stroke="#DE2A2C" stroke-width="2" stroke-linecap="round" stroke-linejoin="round"/>
<path d="M3.83331 40.25H42.1666" stroke="#DE2A2C" stroke-width="2" stroke-linecap="round" stroke-linejoin="round"/>
<path d="M13.4167 15.3333V19.1667" stroke="#DE2A2C" stroke-width="2" stroke-linecap="round" stroke-linejoin="round"/>
<path d="M23 15.3333V19.1667" stroke="#DE2A2C" stroke-width="2" stroke-linecap="round" stroke-linejoin="round"/>
<path d="M32.5833 15.3333V19.1667" stroke="#DE2A2C" stroke-width="2" stroke-linecap="round" stroke-linejoin="round"/>
<path d="M13.4167 7.66666H13.4359" stroke="#DE2A2C" stroke-width="2" stroke-linecap="round" stroke-linejoin="round"/>
<path d="M23 7.66666H23.0192" stroke="#DE2A2C" stroke-width="2" stroke-linecap="round" stroke-linejoin="round"/>
<path d="M32.5833 7.66666H32.6025" stroke="#DE2A2C" stroke-width="2" stroke-linecap="round" stroke-linejoin="round"/>
</svg>
