<svg width="46" height="46" viewBox="0 0 46 46" fill="none" xmlns="http://www.w3.org/2000/svg">
<g id="Icons/cog">
<g id="Group 51">
<path id="Vector" d="M22.9999 36.6C26.6068 36.6 30.066 35.1672 32.6164 32.6167C35.1669 30.0662 36.5997 26.607 36.5997 23.0001C36.5997 19.3932 35.1669 15.934 32.6164 13.3836C30.066 10.8331 26.6068 9.40027 22.9999 9.40027C19.393 9.40027 15.9338 10.8331 13.3833 13.3836C10.8328 15.934 9.39999 19.3932 9.39999 23.0001C9.39999 26.607 10.8328 30.0662 13.3833 32.6167C15.9338 35.1672 19.393 36.6 22.9999 36.6Z" stroke="#DE2A2C" stroke-width="2" stroke-linecap="round" stroke-linejoin="round"/>
<path id="Vector_2" d="M22.9999 26.4002C23.9016 26.4002 24.7664 26.0419 25.404 25.4043C26.0416 24.7667 26.3998 23.9019 26.3998 23.0002C26.3998 22.0985 26.0416 21.2337 25.404 20.596C24.7664 19.9584 23.9016 19.6002 22.9999 19.6002C22.0981 19.6002 21.2333 19.9584 20.5957 20.596C19.9581 21.2337 19.5999 22.0985 19.5999 23.0002C19.5999 23.9019 19.9581 24.7667 20.5957 25.4043C21.2333 26.0419 22.0981 26.4002 22.9999 26.4002Z" stroke="#DE2A2C" stroke-width="2" stroke-linecap="round" stroke-linejoin="round"/>
<path id="Vector_3" d="M23 6.00037V9.40033" stroke="#DE2A2C" stroke-width="2" stroke-linecap="round" stroke-linejoin="round"/>
<path id="Vector_4" d="M23 40.0001V36.6001" stroke="#DE2A2C" stroke-width="2" stroke-linecap="round" stroke-linejoin="round"/>
<path id="Vector_5" d="M31.4998 37.722L29.7998 34.781" stroke="#DE2A2C" stroke-width="2" stroke-linecap="round" stroke-linejoin="round"/>
<path id="Vector_6" d="M21.2999 20.0592L14.5 8.27832" stroke="#DE2A2C" stroke-width="2" stroke-linecap="round" stroke-linejoin="round"/>
<path id="Vector_7" d="M37.7221 31.5L34.7811 29.8" stroke="#DE2A2C" stroke-width="2" stroke-linecap="round" stroke-linejoin="round"/>
<path id="Vector_8" d="M8.27832 14.5002L11.2193 16.2002" stroke="#DE2A2C" stroke-width="2" stroke-linecap="round" stroke-linejoin="round"/>
<path id="Vector_9" d="M26.4001 23.0001H40" stroke="#DE2A2C" stroke-width="2" stroke-linecap="round" stroke-linejoin="round"/>
<path id="Vector_10" d="M6.00032 23.0001H9.40029" stroke="#DE2A2C" stroke-width="2" stroke-linecap="round" stroke-linejoin="round"/>
<path id="Vector_11" d="M37.7221 14.5002L34.7811 16.2002" stroke="#DE2A2C" stroke-width="2" stroke-linecap="round" stroke-linejoin="round"/>
<path id="Vector_12" d="M8.27832 31.5L11.2193 29.8" stroke="#DE2A2C" stroke-width="2" stroke-linecap="round" stroke-linejoin="round"/>
<path id="Vector_13" d="M31.4998 8.27832L29.7998 11.2193" stroke="#DE2A2C" stroke-width="2" stroke-linecap="round" stroke-linejoin="round"/>
<path id="Vector_14" d="M21.2999 25.9412L14.5 37.7221" stroke="#DE2A2C" stroke-width="2" stroke-linecap="round" stroke-linejoin="round"/>
</g>
</g>
</svg>
