<svg width="46" height="46" viewBox="0 0 46 46" fill="none" xmlns="http://www.w3.org/2000/svg">
<g id="Icons/money-back">
<g id="Group 63">
<path id="Vector" d="M5.75 8.8335V15.3335H12.25" stroke="#DE2A2C" stroke-width="2" stroke-linecap="round" stroke-linejoin="round"/>
<path id="Vector_2" d="M5.75 24.9165C6.15698 28.7612 7.84375 32.3577 10.5396 35.1289C13.2355 37.9002 16.7842 39.6854 20.6162 40.1982C24.4482 40.711 28.3414 39.9216 31.6711 37.9567C35.0007 35.9918 37.5738 32.9653 38.9773 29.3629C40.3809 25.7604 40.5335 21.7909 39.4108 18.0914C38.2881 14.3918 35.9551 11.1766 32.7862 8.96175C29.6173 6.74691 25.7963 5.66083 21.9362 5.87778C18.0761 6.09473 14.4008 7.60214 11.5 10.1581L5.75 15.3331" stroke="#DE2A2C" stroke-width="2" stroke-linecap="round" stroke-linejoin="round"/>
<g id="Group 62">
<path id="Vector_3" d="M23.5 14V32.3333" stroke="#DE2A2C" stroke-width="2" stroke-linecap="round" stroke-linejoin="round"/>
<path id="Vector_4" d="M28.0833 16.75H21.2083C20.3574 16.75 19.5414 17.088 18.9397 17.6897C18.338 18.2914 18 19.1074 18 19.9583C18 20.8092 18.338 21.6253 18.9397 22.227C19.5414 22.8286 20.3574 23.1667 21.2083 23.1667H25.7917C26.6426 23.1667 27.4586 23.5047 28.0603 24.1064C28.662 24.708 29 25.5241 29 26.375C29 27.2259 28.662 28.042 28.0603 28.6436C27.4586 29.2453 26.6426 29.5833 25.7917 29.5833H18" stroke="#DE2A2C" stroke-width="2" stroke-linecap="round" stroke-linejoin="round"/>
</g>
</g>
</g>
</svg>
