<svg width="46" height="46" viewBox="0 0 46 46" fill="none" xmlns="http://www.w3.org/2000/svg">
<g id="Icons/motors">
<g id="Group 50">
<g id="Rectangle 24">
<rect x="13.7738" y="7.73022" width="19.4525" height="29.9269" rx="2" stroke="#DE2A2C" stroke-width="2" stroke-linecap="round" stroke-linejoin="round"/>
<rect x="13.7738" y="7.73022" width="19.4525" height="29.9269" rx="2" stroke="#DE2A2C" stroke-width="2" stroke-linecap="round" stroke-linejoin="round"/>
<rect x="13.7738" y="7.73022" width="19.4525" height="29.9269" rx="2" stroke="#DE2A2C" stroke-width="2" stroke-linecap="round" stroke-linejoin="round"/>
</g>
<g id="Rectangle 25">
<rect x="33.2262" y="14.3141" width="5.38683" height="16.759" rx="1" stroke="#DE2A2C" stroke-width="2" stroke-linecap="round" stroke-linejoin="round"/>
<rect x="33.2262" y="14.3141" width="5.38683" height="16.759" rx="1" stroke="#DE2A2C" stroke-width="2" stroke-linecap="round" stroke-linejoin="round"/>
<rect x="33.2262" y="14.3141" width="5.38683" height="16.759" rx="1" stroke="#DE2A2C" stroke-width="2" stroke-linecap="round" stroke-linejoin="round"/>
</g>
<g id="Rectangle 27">
<rect x="8.38669" y="14.3141" width="5.38683" height="16.759" rx="1" stroke="#DE2A2C" stroke-width="2" stroke-linecap="round" stroke-linejoin="round"/>
<rect x="8.38669" y="14.3141" width="5.38683" height="16.759" rx="1" stroke="#DE2A2C" stroke-width="2" stroke-linecap="round" stroke-linejoin="round"/>
<rect x="8.38669" y="14.3141" width="5.38683" height="16.759" rx="1" stroke="#DE2A2C" stroke-width="2" stroke-linecap="round" stroke-linejoin="round"/>
</g>
<g id="Rectangle 26">
<rect x="38.6133" y="20.0001" width="5.38683" height="5.38683" stroke="#DE2A2C" stroke-width="2" stroke-linecap="round" stroke-linejoin="round"/>
<rect x="38.6133" y="20.0001" width="5.38683" height="5.38683" stroke="#DE2A2C" stroke-width="2" stroke-linecap="round" stroke-linejoin="round"/>
<rect x="38.6133" y="20.0001" width="5.38683" height="5.38683" stroke="#DE2A2C" stroke-width="2" stroke-linecap="round" stroke-linejoin="round"/>
</g>
<g id="Rectangle 28">
<rect x="3" y="20.0001" width="5.38683" height="5.38683" stroke="#DE2A2C" stroke-width="2" stroke-linecap="round" stroke-linejoin="round"/>
<rect x="3" y="20.0001" width="5.38683" height="5.38683" stroke="#DE2A2C" stroke-width="2" stroke-linecap="round" stroke-linejoin="round"/>
<rect x="3" y="20.0001" width="5.38683" height="5.38683" stroke="#DE2A2C" stroke-width="2" stroke-linecap="round" stroke-linejoin="round"/>
</g>
<g id="Vector 7">
<path d="M18.619 13.2311H28.3809" stroke="#DE2A2C" stroke-width="2" stroke-linecap="round" stroke-linejoin="round"/>
<path d="M18.619 13.2311H28.3809" stroke="#DE2A2C" stroke-width="2" stroke-linecap="round" stroke-linejoin="round"/>
<path d="M18.619 13.2311H28.3809" stroke="#DE2A2C" stroke-width="2" stroke-linecap="round" stroke-linejoin="round"/>
</g>
<g id="Vector 8">
<path d="M18.619 18.1121H28.3809" stroke="#DE2A2C" stroke-width="2" stroke-linecap="round" stroke-linejoin="round"/>
<path d="M18.619 18.1121H28.3809" stroke="#DE2A2C" stroke-width="2" stroke-linecap="round" stroke-linejoin="round"/>
<path d="M18.619 18.1121H28.3809" stroke="#DE2A2C" stroke-width="2" stroke-linecap="round" stroke-linejoin="round"/>
</g>
<g id="Vector 9">
<path d="M18.619 22.9928H28.3809" stroke="#DE2A2C" stroke-width="2" stroke-linecap="round" stroke-linejoin="round"/>
<path d="M18.619 22.9928H28.3809" stroke="#DE2A2C" stroke-width="2" stroke-linecap="round" stroke-linejoin="round"/>
<path d="M18.619 22.9928H28.3809" stroke="#DE2A2C" stroke-width="2" stroke-linecap="round" stroke-linejoin="round"/>
</g>
<g id="Vector 10">
<path d="M18.619 27.8738H28.3809" stroke="#DE2A2C" stroke-width="2" stroke-linecap="round" stroke-linejoin="round"/>
<path d="M18.619 27.8738H28.3809" stroke="#DE2A2C" stroke-width="2" stroke-linecap="round" stroke-linejoin="round"/>
<path d="M18.619 27.8738H28.3809" stroke="#DE2A2C" stroke-width="2" stroke-linecap="round" stroke-linejoin="round"/>
</g>
<g id="Vector 11">
<path d="M18.619 32.7548H28.3809" stroke="#DE2A2C" stroke-width="2" stroke-linecap="round" stroke-linejoin="round"/>
<path d="M18.619 32.7548H28.3809" stroke="#DE2A2C" stroke-width="2" stroke-linecap="round" stroke-linejoin="round"/>
<path d="M18.619 32.7548H28.3809" stroke="#DE2A2C" stroke-width="2" stroke-linecap="round" stroke-linejoin="round"/>
</g>
</g>
</g>
</svg>
