<svg width="46" height="46" viewBox="0 0 46 46" fill="none" xmlns="http://www.w3.org/2000/svg">
<path d="M8.36746 23.0609C11.8188 21.9342 12.0057 17.7143 16.5542 16.8239C20.1925 16.1099 22.3785 18.6173 22.9214 21.279C23.376 23.5071 22.0121 29.2999 14.7346 29.2999C5.63853 29.2999 2.6072 23.5071 2.00031 21.279C2.9096 22.1705 5.63853 23.9523 8.36746 23.0609Z" stroke="#DE2A2C" stroke-width="2" stroke-linecap="round" stroke-linejoin="round"/>
<path d="M37.633 23.0609C34.1806 21.9342 33.9948 17.7143 29.4462 16.8239C25.808 16.1099 23.6219 18.6173 23.0791 21.279C22.6244 23.5071 23.9884 29.2999 31.2659 29.2999C40.3619 29.2999 43.3933 23.5071 44.0002 21.279C43.0909 22.1705 40.3619 23.9523 37.633 23.0609Z" stroke="#DE2A2C" stroke-width="2" stroke-linecap="round" stroke-linejoin="round"/>
</svg>
