<svg width="24" height="24" viewBox="0 0 24 24" fill="none" xmlns="http://www.w3.org/2000/svg">
<g id="Icons/pinterest">
<path id="Vector" d="M11.9537 3C6.66625 3 4 6.79125 4 9.9525C4 11.8688 4.72625 13.57 6.27875 14.2038C6.535 14.3088 6.7625 14.2087 6.83625 13.9275L7.06375 13.0312C7.14 12.755 7.11 12.6562 6.905 12.4125C6.45625 11.885 6.17 11.1975 6.17 10.2288C6.17 7.41625 8.27375 4.89875 11.65 4.89875C14.64 4.89875 16.2825 6.7275 16.2825 9.16375C16.2825 12.3737 14.8612 15.0813 12.7525 15.0813C11.5875 15.0813 10.7162 14.1187 10.9963 12.9375C11.3313 11.525 11.9787 10.0037 11.9787 8.9875C11.9787 8.07625 11.4887 7.3175 10.4787 7.3175C9.28875 7.3175 8.33125 8.5475 8.33125 10.1975C8.33125 11.2488 8.68875 11.9587 8.68875 11.9587L7.25625 18.0238C6.83125 19.8238 7.1925 22.0312 7.225 22.255C7.24125 22.385 7.41125 22.4188 7.4875 22.3188C7.5975 22.175 9.01625 20.4225 9.49625 18.675C9.635 18.18 10.28 15.6188 10.28 15.6188C10.6688 16.355 11.7962 17.0037 12.9987 17.0037C16.5775 17.0037 19.0037 13.7438 19.0037 9.375C19 6.075 16.2037 3 11.9537 3Z" fill="white"/>
</g>
</svg>
