<svg width="46" height="46" viewBox="0 0 46 46" fill="none" xmlns="http://www.w3.org/2000/svg">
<g id="Icons/gift">
<g id="Group 52">
<path id="Vector" d="M34.9999 23V37.9998H11.0001V23" stroke="#DE2A2C" stroke-width="2" stroke-linecap="round" stroke-linejoin="round"/>
<path id="Vector_2" d="M38 15.5H8.00037V22.9999H38V15.5Z" stroke="#DE2A2C" stroke-width="2" stroke-linecap="round" stroke-linejoin="round"/>
<path id="Vector_3" d="M23.0001 37.9998V15.5" stroke="#DE2A2C" stroke-width="2" stroke-linecap="round" stroke-linejoin="round"/>
<path id="Vector_4" d="M23.0003 15.5001H16.2503C15.2558 15.5001 14.302 15.105 13.5987 14.4018C12.8955 13.6985 12.5004 12.7447 12.5004 11.7501C12.5004 10.7556 12.8955 9.80177 13.5987 9.09852C14.302 8.39527 15.2558 8.00018 16.2503 8.00018C21.5003 8.00018 23.0003 15.5001 23.0003 15.5001Z" stroke="#DE2A2C" stroke-width="2" stroke-linecap="round" stroke-linejoin="round"/>
<path id="Vector_5" d="M23.0001 15.5001H29.75C30.7446 15.5001 31.6984 15.105 32.4017 14.4018C33.1049 13.6985 33.5 12.7447 33.5 11.7501C33.5 10.7556 33.1049 9.80177 32.4017 9.09852C31.6984 8.39527 30.7446 8.00018 29.75 8.00018C24.5001 8.00018 23.0001 15.5001 23.0001 15.5001Z" stroke="#DE2A2C" stroke-width="2" stroke-linecap="round" stroke-linejoin="round"/>
</g>
</g>
</svg>
