<svg width="46" height="46" viewBox="0 0 46 46" fill="none" xmlns="http://www.w3.org/2000/svg">
<g id="Icons/soccer">
<g id="Group 53">
<g id="Group">
<path id="Vector" d="M18.0527 7.78118C9.64579 10.5096 5.0531 19.5406 7.78151 27.941C10.5099 36.3407 19.5417 40.9406 27.9414 38.213C36.349 35.4846 40.9409 26.4528 38.2133 18.0531C35.4841 9.64467 26.4523 5.05277 18.0527 7.78118Z" stroke="#DE2A2C" stroke-width="2" stroke-linecap="round" stroke-linejoin="round"/>
<path id="Vector_2" d="M31.0012 20.599L23 14.198M31.0012 20.599L27.8007 30.2005M31.0012 20.599L38.2023 18.1986M23 14.198L14.9988 20.599M23 14.198V6.99695M14.9988 20.599L18.1993 30.2005M14.9988 20.599L7.79768 18.1986M18.1993 30.2005H27.8007M18.1993 30.2005L13.3985 35.8013M27.8007 30.2005L32.6014 35.8013" stroke="#DE2A2C" stroke-width="2" stroke-linecap="round" stroke-linejoin="round"/>
</g>
</g>
</g>
</svg>
