<svg width="46" height="46" viewBox="0 0 46 46" fill="none" xmlns="http://www.w3.org/2000/svg">
<g id="Icons/truck">
<g id="Group 60">
<path id="Vector" d="M21.7653 31.9838H28.8991V10.5823H7.49756M7.49756 31.9838H12.8479" stroke="#DE2A2C" stroke-width="2" stroke-linecap="round" stroke-linejoin="round"/>
<path id="Vector_2" d="M14.166 17.4836H3" stroke="#DE2A2C" stroke-width="2" stroke-linecap="round" stroke-linejoin="round"/>
<path id="Vector_3" d="M12.305 23.9971H6.72198" stroke="#DE2A2C" stroke-width="2" stroke-linecap="round" stroke-linejoin="round"/>
<path id="Vector_4" d="M39.5999 31.984H43.1668V26.0272C43.1675 25.0901 42.9836 24.1621 42.6256 23.2961C42.2676 22.43 41.7424 21.643 41.0802 20.98L37.8164 17.7163H28.8991" stroke="#DE2A2C" stroke-width="2" stroke-linecap="round" stroke-linejoin="round"/>
<path id="Vector_5" d="M28.8991 31.9839H30.6826" stroke="#DE2A2C" stroke-width="2" stroke-linecap="round" stroke-linejoin="round"/>
<path id="Vector_6" d="M17.3066 37.3343C19.7691 37.3343 21.7653 35.3381 21.7653 32.8756C21.7653 30.4132 19.7691 28.417 17.3066 28.417C14.8442 28.417 12.848 30.4132 12.848 32.8756C12.848 35.3381 14.8442 37.3343 17.3066 37.3343Z" stroke="#DE2A2C" stroke-width="2" stroke-linecap="round" stroke-linejoin="round"/>
<path id="Vector_7" d="M35.1411 37.3343C37.6035 37.3343 39.5997 35.3381 39.5997 32.8756C39.5997 30.4132 37.6035 28.417 35.1411 28.417C32.6786 28.417 30.6824 30.4132 30.6824 32.8756C30.6824 35.3381 32.6786 37.3343 35.1411 37.3343Z" stroke="#DE2A2C" stroke-width="2" stroke-linecap="round" stroke-linejoin="round"/>
</g>
</g>
</svg>
